<svg width="32" height="32" viewBox="0 0 32 32" fill="none" xmlns="http://www.w3.org/2000/svg">
  <!-- Main chat bubble -->
  <path d="M6 10C6 7.79086 7.79086 6 10 6H16C18.2091 6 20 7.79086 20 10V16C20 18.2091 18.2091 20 16 20H13L10 22V20H10C7.79086 20 6 18.2091 6 16V10Z" fill="#3B82F6"/>
  
  <!-- Second chat bubble -->
  <path d="M13 13C13 11.3431 14.3431 10 16 10H22C23.6569 10 25 11.3431 25 13V19C25 20.6569 23.6569 22 22 22H19L16 24V22H16C14.3431 22 13 20.6569 13 19V13Z" fill="#1E40AF"/>
  
  <!-- Chat dots -->
  <circle cx="11" cy="13" r="1" fill="white"/>
  <circle cx="14" cy="13" r="1" fill="white"/>
  <circle cx="18" cy="16" r="1" fill="white"/>
  <circle cx="21" cy="16" r="1" fill="white"/>
</svg> 