<svg width="40" height="40" viewBox="0 0 40 40" fill="none" xmlns="http://www.w3.org/2000/svg">
  <!-- Main chat bubble -->
  <path d="M8 12C8 9.79086 9.79086 8 12 8H20C22.2091 8 24 9.79086 24 12V20C24 22.2091 22.2091 24 20 24H16L12 28V24H12C9.79086 24 8 22.2091 8 20V12Z" fill="#3B82F6"/>
  
  <!-- Second chat bubble -->
  <path d="M16 16C16 13.7909 17.7909 12 20 12H28C30.2091 12 32 13.7909 32 16V24C32 26.2091 30.2091 28 28 28H24L20 32V28H20C17.7909 28 16 26.2091 16 24V16Z" fill="#1E40AF"/>
  
  <!-- Chat dots -->
  <circle cx="14" cy="16" r="1.5" fill="white"/>
  <circle cx="18" cy="16" r="1.5" fill="white"/>
  <circle cx="22" cy="20" r="1.5" fill="white"/>
  <circle cx="26" cy="20" r="1.5" fill="white"/>
</svg> 